<svg width="192" height="256" viewBox="0 0 192 256" fill="none" xmlns="http://www.w3.org/2000/svg">
<path d="M46.208 175.84C32.896 175.84 22.4853 172.384 14.976 165.472C7.46667 158.475 3.712 148.789 3.712 136.416C3.712 125.493 6.31467 115.68 11.52 106.976C16.8107 98.1867 24.064 91.36 33.28 86.496C42.496 81.5467 52.8213 79.072 64.256 79.072C72.448 79.072 78.976 80.5653 83.84 83.552C88.704 86.4533 91.136 90.3787 91.136 95.328C91.136 99.3387 89.6853 102.667 86.784 105.312C83.968 107.872 80.3413 109.152 75.904 109.152C71.6373 109.152 67.6693 108 64 105.696C60.416 103.392 57.6 100.149 55.552 95.968C51.0293 97.5893 46.9333 100.448 43.264 104.544C39.68 108.64 36.8213 113.504 34.688 119.136C32.64 124.768 31.616 130.699 31.616 136.928C31.616 144.693 33.024 150.752 35.84 155.104C38.656 159.456 42.5813 161.632 47.616 161.632C51.0293 161.632 54.1013 160.779 56.832 159.072C59.648 157.365 61.9093 155.019 63.616 152.032C65.3227 149.045 66.2613 145.717 66.432 142.048C68.48 142.048 70.0587 142.731 71.168 144.096C72.2773 145.461 72.832 147.467 72.832 150.112C72.832 154.805 71.6373 159.115 69.248 163.04C66.8587 166.965 63.616 170.08 59.52 172.384C55.5093 174.688 51.072 175.84 46.208 175.84ZM70.272 195.68C64.9813 195.68 61.0987 194.485 58.624 192.096C56.2347 189.707 55.04 186.165 55.04 181.472C55.04 179.083 55.5947 175.115 56.704 169.568L71.424 147.808L66.432 142.048L56.448 132.448C60.544 129.888 64.8107 127.797 69.248 126.176C73.6853 124.555 77.8667 123.744 81.792 123.744C85.376 123.744 87.8933 124.427 89.344 125.792C90.7947 127.157 91.52 129.333 91.52 132.32C91.52 134.197 90.4107 138.891 88.192 146.4C85.9733 154.507 84.3093 161.12 83.2 166.24C82.0907 171.275 81.536 175.755 81.536 179.68C81.536 184.544 82.8587 188 85.504 190.048C80.7253 193.803 75.648 195.68 70.272 195.68ZM148.899 145.76C145.23 145.76 142.03 145.461 139.299 144.864C136.654 144.181 133.88 143.072 130.979 141.536V126.304C132.43 127.499 134.136 128.395 136.099 128.992C138.062 129.504 140.067 129.76 142.115 129.76C146.04 129.76 149.582 128.907 152.739 127.2C155.982 125.493 158.499 123.104 160.291 120.032C162.168 116.96 163.107 113.547 163.107 109.792C163.107 105.867 161.955 102.539 159.651 99.808C157.432 97.0773 154.275 95.712 150.179 95.712C147.619 95.712 145.016 96.352 142.371 97.632C139.726 98.8267 136.867 100.661 133.795 103.136V90.08C137.038 87.6053 139.896 85.6427 142.371 84.192C144.931 82.7413 147.875 81.5893 151.203 80.736C154.616 79.7973 158.584 79.328 163.107 79.328C168.995 79.328 174.072 80.6507 178.339 83.296C182.691 85.9413 185.976 89.44 188.195 93.792C190.499 98.144 191.651 102.88 191.651 108C191.651 114.315 190.072 120.373 186.915 126.176C183.758 131.893 178.936 136.587 172.451 140.256C166.051 143.925 158.2 145.76 148.899 145.76ZM123.171 175.328C117.71 175.328 113.742 173.963 111.267 171.232C108.792 168.501 107.555 164.107 107.555 158.048C107.555 154.293 108.067 148.661 109.091 141.152C110.2 133.643 112.376 120.629 115.619 102.112L108.835 88.416C118.478 82.1867 127.267 79.072 135.203 79.072C141.774 79.072 145.059 83.0827 145.059 91.104C145.059 92.9813 144.547 96.8213 143.523 102.624C142.584 108.341 141.518 114.357 140.323 120.672C138.702 129.376 137.422 136.459 136.483 141.92C135.63 147.381 135.203 151.264 135.203 153.568C135.203 157.493 135.459 160.651 135.971 163.04C136.568 165.429 137.592 167.605 139.043 169.568C134.179 173.408 128.888 175.328 123.171 175.328Z" fill="#B44F4E"/>
<path d="M106.811 198.715V201H99.2422V198.715H106.811ZM100.199 186.781V201H97.2695V186.781H100.199ZM105.824 192.572V194.799H99.2422V192.572H105.824ZM106.801 186.781V189.076H99.2422V186.781H106.801ZM114.301 189.213L110.434 201H107.318L112.602 186.781H114.584L114.301 189.213ZM117.514 201L113.637 189.213L113.324 186.781H115.326L120.639 201H117.514ZM117.338 195.707V198.002H109.828V195.707H117.338ZM129.359 197.279C129.359 197.025 129.32 196.798 129.242 196.596C129.171 196.387 129.034 196.199 128.832 196.029C128.63 195.854 128.347 195.681 127.982 195.512C127.618 195.342 127.146 195.167 126.566 194.984C125.922 194.776 125.31 194.542 124.73 194.281C124.158 194.021 123.65 193.718 123.207 193.373C122.771 193.021 122.426 192.615 122.172 192.152C121.924 191.69 121.801 191.153 121.801 190.541C121.801 189.949 121.931 189.411 122.191 188.93C122.452 188.441 122.816 188.025 123.285 187.68C123.754 187.328 124.307 187.058 124.945 186.869C125.59 186.68 126.296 186.586 127.064 186.586C128.113 186.586 129.027 186.775 129.809 187.152C130.59 187.53 131.195 188.048 131.625 188.705C132.061 189.363 132.279 190.115 132.279 190.961H129.369C129.369 190.544 129.281 190.18 129.105 189.867C128.936 189.548 128.676 189.298 128.324 189.115C127.979 188.933 127.543 188.842 127.016 188.842C126.508 188.842 126.085 188.92 125.746 189.076C125.408 189.226 125.154 189.431 124.984 189.691C124.815 189.945 124.73 190.232 124.73 190.551C124.73 190.792 124.789 191.01 124.906 191.205C125.03 191.4 125.212 191.583 125.453 191.752C125.694 191.921 125.99 192.081 126.342 192.23C126.693 192.38 127.1 192.527 127.562 192.67C128.337 192.904 129.018 193.168 129.604 193.461C130.196 193.754 130.691 194.083 131.088 194.447C131.485 194.812 131.785 195.225 131.986 195.688C132.188 196.15 132.289 196.674 132.289 197.26C132.289 197.878 132.169 198.432 131.928 198.92C131.687 199.408 131.339 199.822 130.883 200.16C130.427 200.499 129.883 200.756 129.252 200.932C128.62 201.107 127.914 201.195 127.133 201.195C126.43 201.195 125.736 201.104 125.053 200.922C124.369 200.733 123.747 200.45 123.188 200.072C122.634 199.695 122.191 199.213 121.859 198.627C121.527 198.041 121.361 197.348 121.361 196.547H124.301C124.301 196.99 124.369 197.364 124.506 197.67C124.643 197.976 124.835 198.223 125.082 198.412C125.336 198.601 125.635 198.738 125.98 198.822C126.332 198.907 126.716 198.949 127.133 198.949C127.641 198.949 128.057 198.878 128.383 198.734C128.715 198.591 128.959 198.393 129.115 198.139C129.278 197.885 129.359 197.598 129.359 197.279ZM138.646 201H135.551L135.57 198.715H138.646C139.415 198.715 140.062 198.542 140.59 198.197C141.117 197.846 141.514 197.335 141.781 196.664C142.055 195.993 142.191 195.183 142.191 194.232V193.539C142.191 192.81 142.113 192.169 141.957 191.615C141.807 191.062 141.583 190.596 141.283 190.219C140.984 189.841 140.616 189.558 140.18 189.369C139.743 189.174 139.242 189.076 138.676 189.076H135.492V186.781H138.676C139.626 186.781 140.495 186.944 141.283 187.27C142.077 187.589 142.764 188.048 143.344 188.646C143.923 189.245 144.369 189.962 144.682 190.795C145.001 191.622 145.16 192.543 145.16 193.559V194.232C145.16 195.242 145.001 196.163 144.682 196.996C144.369 197.829 143.923 198.546 143.344 199.145C142.771 199.737 142.084 200.196 141.283 200.521C140.489 200.84 139.61 201 138.646 201ZM137.211 186.781V201H134.281V186.781H137.211ZM152.855 189.213L148.988 201H145.873L151.156 186.781H153.139L152.855 189.213ZM156.068 201L152.191 189.213L151.879 186.781H153.881L159.193 201H156.068ZM155.893 195.707V198.002H148.383V195.707H155.893ZM163.305 186V201H160.482V186H163.305ZM169.994 198.998C170.339 198.998 170.645 198.933 170.912 198.803C171.179 198.666 171.387 198.477 171.537 198.236C171.693 197.989 171.775 197.699 171.781 197.367H174.428C174.421 198.109 174.223 198.77 173.832 199.35C173.441 199.923 172.917 200.375 172.26 200.707C171.602 201.033 170.867 201.195 170.053 201.195C169.232 201.195 168.516 201.059 167.904 200.785C167.299 200.512 166.794 200.134 166.391 199.652C165.987 199.164 165.684 198.598 165.482 197.953C165.281 197.302 165.18 196.605 165.18 195.863V195.58C165.18 194.831 165.281 194.135 165.482 193.49C165.684 192.839 165.987 192.273 166.391 191.791C166.794 191.303 167.299 190.922 167.904 190.648C168.51 190.375 169.219 190.238 170.033 190.238C170.899 190.238 171.658 190.404 172.309 190.736C172.966 191.068 173.48 191.544 173.852 192.162C174.229 192.774 174.421 193.5 174.428 194.34H171.781C171.775 193.988 171.7 193.669 171.557 193.383C171.42 193.096 171.218 192.868 170.951 192.699C170.691 192.523 170.368 192.436 169.984 192.436C169.574 192.436 169.239 192.523 168.979 192.699C168.718 192.868 168.516 193.103 168.373 193.402C168.23 193.695 168.129 194.031 168.07 194.408C168.018 194.779 167.992 195.17 167.992 195.58V195.863C167.992 196.273 168.018 196.667 168.07 197.045C168.122 197.423 168.22 197.758 168.363 198.051C168.513 198.344 168.718 198.575 168.979 198.744C169.239 198.913 169.577 198.998 169.994 198.998ZM175.609 195.824V195.619C175.609 194.844 175.72 194.132 175.941 193.48C176.163 192.823 176.485 192.253 176.908 191.771C177.331 191.29 177.852 190.915 178.471 190.648C179.089 190.375 179.799 190.238 180.6 190.238C181.4 190.238 182.113 190.375 182.738 190.648C183.363 190.915 183.887 191.29 184.311 191.771C184.74 192.253 185.066 192.823 185.287 193.48C185.508 194.132 185.619 194.844 185.619 195.619V195.824C185.619 196.592 185.508 197.305 185.287 197.963C185.066 198.614 184.74 199.184 184.311 199.672C183.887 200.154 183.367 200.528 182.748 200.795C182.13 201.062 181.42 201.195 180.619 201.195C179.818 201.195 179.105 201.062 178.48 200.795C177.862 200.528 177.338 200.154 176.908 199.672C176.485 199.184 176.163 198.614 175.941 197.963C175.72 197.305 175.609 196.592 175.609 195.824ZM178.422 195.619V195.824C178.422 196.267 178.461 196.68 178.539 197.064C178.617 197.449 178.741 197.787 178.91 198.08C179.086 198.367 179.314 198.591 179.594 198.754C179.874 198.917 180.215 198.998 180.619 198.998C181.01 198.998 181.345 198.917 181.625 198.754C181.905 198.591 182.13 198.367 182.299 198.08C182.468 197.787 182.592 197.449 182.67 197.064C182.755 196.68 182.797 196.267 182.797 195.824V195.619C182.797 195.189 182.755 194.786 182.67 194.408C182.592 194.024 182.465 193.686 182.289 193.393C182.12 193.093 181.895 192.859 181.615 192.689C181.335 192.52 180.997 192.436 180.6 192.436C180.202 192.436 179.864 192.52 179.584 192.689C179.311 192.859 179.086 193.093 178.91 193.393C178.741 193.686 178.617 194.024 178.539 194.408C178.461 194.786 178.422 195.189 178.422 195.619ZM190.316 190.434V201H187.494V190.434H190.316ZM187.318 187.68C187.318 187.27 187.462 186.931 187.748 186.664C188.035 186.397 188.419 186.264 188.9 186.264C189.376 186.264 189.757 186.397 190.043 186.664C190.336 186.931 190.482 187.27 190.482 187.68C190.482 188.09 190.336 188.428 190.043 188.695C189.757 188.962 189.376 189.096 188.9 189.096C188.419 189.096 188.035 188.962 187.748 188.695C187.462 188.428 187.318 188.09 187.318 187.68Z" fill="#B44F4E"/>
</svg>
